<?xml version="1.0" standalone="no"?>
<!DOCTYPE svg PUBLIC "-//W3C//DTD SVG 20010904//EN"
 "http://www.w3.org/TR/2001/REC-SVG-20010904/DTD/svg10.dtd">
<svg version="1.0" xmlns="http://www.w3.org/2000/svg"
 width="512.000000pt" height="512.000000pt" viewBox="0 0 512.000000 512.000000"
 preserveAspectRatio="xMidYMid meet">

<g transform="translate(0.000000,512.000000) scale(0.100000,-0.100000)"
fill="#000000" stroke="none">
<path d="M1475 4534 c-583 -322 -1147 -634 -1253 -692 -140 -77 -198 -115
-208 -134 -12 -23 -14 -296 -14 -1827 0 -1374 3 -1806 12 -1826 27 -59 -152
-55 2548 -55 2700 0 2521 -4 2548 55 9 20 12 452 12 1826 0 1521 -2 1804 -14
1827 -11 21 -125 88 -489 290 -522 288 -526 290 -581 236 -36 -37 -37 -100 -1
-134 13 -13 217 -129 452 -260 l428 -236 3 -1702 2 -1702 -220 0 -220 0 0
1580 c0 1719 3 1622 -55 1648 -20 9 -461 12 -1866 12 -2001 0 -1881 3 -1907
-55 -8 -18 -12 -106 -12 -288 0 -292 1 -296 66 -323 29 -12 39 -12 68 0 63 26
66 38 66 263 l0 203 1720 0 1720 0 0 -1520 0 -1520 -210 0 -210 0 0 523 0 524
-23 44 c-13 24 -43 58 -66 74 l-43 30 -234 3 -233 3 -3 534 -3 533 -30 43
c-16 23 -50 53 -74 66 l-44 23 -537 0 c-385 0 -547 -3 -571 -12 -54 -18 -87
-48 -114 -102 l-25 -50 0 -517 0 -518 -233 -3 -234 -3 -40 -27 c-22 -15 -51
-44 -64 -65 l-24 -38 -3 -533 -3 -532 -209 0 -210 0 -2 956 -3 956 -28 24
c-38 33 -96 33 -134 0 l-28 -24 -3 -956 -2 -956 -220 0 -220 0 2 1702 3 1702
405 223 c516 286 973 539 1513 837 235 130 432 236 438 236 5 0 185 -97 399
-215 214 -119 403 -221 420 -227 65 -22 136 44 123 114 -3 14 -17 37 -31 51
-15 13 -148 91 -297 172 -148 82 -342 189 -430 237 -88 48 -171 88 -185 88
-15 0 -471 -247 -1085 -586z m785 -2294 c0 -102 4 -168 12 -185 23 -50 48 -55
288 -55 240 0 265 5 288 55 8 17 12 83 12 185 l0 160 100 0 100 0 0 -500 0
-500 -500 0 -500 0 0 500 0 500 100 0 100 0 0 -160z m400 60 l0 -100 -100 0
-100 0 0 100 0 100 100 0 100 0 0 -100z m-1000 -1266 l0 -166 34 -34 34 -34
226 0 c247 0 271 5 294 55 8 17 12 83 12 185 l0 160 100 0 100 0 0 -500 0
-500 -500 0 -500 0 0 500 0 500 100 0 100 0 0 -166z m400 66 l0 -100 -100 0
-100 0 0 100 0 100 100 0 100 0 0 -100z m800 -66 l0 -166 34 -34 34 -34 226 0
c247 0 271 5 294 55 8 17 12 83 12 185 l0 160 100 0 100 0 0 -500 0 -500 -500
0 -500 0 0 500 0 500 100 0 100 0 0 -166z m400 66 l0 -100 -100 0 -100 0 0
100 0 100 100 0 100 0 0 -100z"/>
<path d="M2450 4504 c-308 -82 -412 -474 -186 -700 241 -240 651 -107 709 230
51 296 -230 548 -523 470z m211 -212 c168 -87 151 -330 -27 -398 -143 -54
-302 65 -292 218 8 116 105 208 218 208 33 0 64 -9 101 -28z"/>
<path d="M3708 4445 c-85 -47 -51 -185 45 -185 43 0 92 38 100 77 6 31 -12 81
-36 101 -24 20 -79 24 -109 7z"/>
<path d="M675 2538 c-56 -49 -40 -134 31 -164 29 -12 39 -12 68 0 102 43 76
186 -34 186 -26 0 -47 -7 -65 -22z"/>
</g>
</svg>
